<svg width="33" height="32" viewBox="0 0 33 32" fill="none" xmlns="http://www.w3.org/2000/svg"><g clip-path="url(#clip0_203_899)"><path fill-rule="evenodd" clip-rule="evenodd" d="M28.2715 4.65067C25.1683 1.65333 21.0428 0.00133333 16.6479 0C7.59138 0 0.220432 7.112 0.216287 15.856C0.214905 18.6507 0.972033 21.3787 2.4103 23.784L0.078125 32L8.78786 29.7947C11.1877 31.0587 13.8902 31.724 16.6396 31.7253H16.6465C25.7017 31.7253 33.074 24.612 33.0781 15.868C33.0809 11.632 31.3732 7.64667 28.2715 4.65067ZM16.6479 29.0467H16.6424C14.1914 29.0467 11.7887 28.4107 9.69144 27.2093L9.19267 26.924L4.02403 28.232L5.40427 23.368L5.07959 22.8693C3.71179 20.7707 2.99058 18.3453 2.99196 15.856C2.99473 8.58933 9.12221 2.67733 16.6548 2.67733C20.3023 2.67733 23.7315 4.05067 26.3096 6.54133C28.8877 9.03333 30.3066 12.344 30.3052 15.8653C30.3011 23.1347 24.175 29.0467 16.6479 29.0467ZM24.139 19.176C23.7287 18.9773 21.7102 18.0187 21.333 17.8867C20.9572 17.7547 20.6836 17.688 20.4087 18.084C20.1337 18.48 19.349 19.3733 19.1086 19.6387C18.8695 19.9027 18.6291 19.936 18.2188 19.7373C17.8085 19.5387 16.4849 19.1213 14.9167 17.7707C13.6968 16.72 12.8719 15.4227 12.6329 15.0253C12.3939 14.628 12.608 14.4147 12.8125 14.2173C12.9977 14.04 13.2229 13.7547 13.4287 13.5227C13.636 13.2933 13.7037 13.128 13.8418 12.8627C13.9786 12.5987 13.9109 12.3667 13.8073 12.168C13.7037 11.9707 12.883 10.02 12.5417 9.22667C12.2087 8.45333 11.8703 8.55867 11.6174 8.54667C11.3784 8.53467 11.1048 8.53333 10.8299 8.53333C10.5563 8.53333 10.1115 8.632 9.73565 9.02933C9.35985 9.42667 8.29877 10.3853 8.29877 12.3347C8.29877 14.2853 9.77019 16.1693 9.97467 16.4333C10.1791 16.6973 12.8692 20.7 16.9878 22.416C17.9673 22.824 18.7328 23.068 19.3282 23.2507C20.312 23.552 21.2072 23.5093 21.9146 23.408C22.7035 23.2947 24.3435 22.4493 24.6862 21.524C25.0288 20.5987 25.0288 19.804 24.9252 19.64C24.8229 19.4733 24.5494 19.3747 24.139 19.176Z" fill="white"/></g><defs><clipPath id="clip0_203_899"><path d="M0 16.5C0 7.3873 7.3873 0 16.5 0C25.6127 0 33 7.3873 33 16.5V32H0V16.5Z" fill="white"/></clipPath></defs></svg>