<svg width="272" height="78" viewBox="0 0 272 78" fill="none" xmlns="http://www.w3.org/2000/svg"><path d="M28.0734 53.6412H19.5825L23.1013 37.0601L14.0367 53.6412H8.83509L7.11397 36.4844L3.44224 53.6412H0L5.16337 29.2686H14.9164L16.1021 43.0094L23.4455 29.2686H33.275L28.0734 53.6412Z" fill="white"/><path d="M31.5061 53.6412L36.6695 29.2686H46.9579C48.5388 29.2686 49.9157 29.4349 51.0886 29.7675C52.2871 30.0746 53.2687 30.5991 54.0337 31.3412C54.8241 32.0832 55.4106 33.0556 55.793 34.2582C56.201 35.4609 56.405 36.9322 56.405 38.6722C56.405 40.5401 56.1628 42.3696 55.6783 44.1608C55.2193 45.952 54.4416 47.5512 53.3452 48.9586C52.2488 50.3659 50.8082 51.5046 49.0233 52.3746C47.2639 53.219 45.0838 53.6412 42.483 53.6412H31.5061ZM41.9858 50.9544C42.8273 50.9544 43.5667 50.609 44.2042 49.9181C44.8671 49.2017 45.4281 48.3061 45.887 47.2314C46.3715 46.1311 46.7667 44.9285 47.0727 43.6235C47.4042 42.2929 47.6591 41.0135 47.8376 39.7853C48.0416 38.557 48.1819 37.4567 48.2584 36.4844C48.3603 35.512 48.4113 34.8212 48.4113 34.4118C48.4113 33.6185 48.2456 33.0044 47.9141 32.5694C47.6082 32.1088 47.0599 31.8785 46.2695 31.8785H44.4336L40.3412 50.9544H41.9858Z" fill="white"/><path d="M76.9177 53.6412H67.9679L67.4324 47.5384H60.3567L57.6412 53.6412H53.9312L65.2141 29.2686H74.2787L76.9177 53.6412ZM61.6189 44.7365H67.1647L66.285 34.2966L61.6189 44.7365Z" fill="white"/><path d="M121.512 36.5114C121.589 36.1381 121.628 35.628 121.628 34.9811C121.628 34.6079 121.602 34.2471 121.55 33.8987C121.499 33.5255 121.408 33.202 121.278 32.9283C121.148 32.6297 120.954 32.4057 120.694 32.2564C120.435 32.0823 120.097 31.9952 119.682 31.9952C119.215 31.9952 118.787 32.0947 118.397 32.2938C118.008 32.4928 117.658 32.7541 117.346 33.0776C117.061 33.3762 116.827 33.737 116.646 34.16C116.49 34.5581 116.412 34.9811 116.412 35.429C116.412 36.0759 116.581 36.5736 116.918 36.9219C117.282 37.2703 117.749 37.5565 118.32 37.7804C118.891 38.0043 119.539 38.191 120.266 38.3403C120.993 38.4896 121.745 38.6637 122.524 38.8628C123.172 39.037 123.821 39.2609 124.47 39.5346C125.119 39.8083 125.69 40.1816 126.183 40.6544C126.702 41.1022 127.117 41.6994 127.428 42.4459C127.74 43.1675 127.895 44.0757 127.895 45.1706C127.895 46.7382 127.571 48.057 126.922 49.1269C126.273 50.1969 125.378 51.0678 124.236 51.7396C123.095 52.4115 121.732 52.8967 120.149 53.1953C118.592 53.4939 116.892 53.6431 115.05 53.6431C113.181 53.6431 111.65 53.5312 110.457 53.3072C109.289 53.0584 108.368 52.7971 107.693 52.5234C106.888 52.2 106.292 51.8267 105.902 51.4037L107.226 46.2903H114.077C114.051 46.5142 114.025 46.8253 113.999 47.2234C113.973 47.5966 113.96 47.8952 113.96 48.1192C113.96 48.4178 113.999 48.7288 114.077 49.0523C114.155 49.3758 114.271 49.6744 114.427 49.9481C114.609 50.2218 114.855 50.4457 115.167 50.6199C115.478 50.7941 115.867 50.8812 116.334 50.8812C116.853 50.8812 117.308 50.7692 117.697 50.5452C118.112 50.3213 118.449 50.0476 118.709 49.7241C118.994 49.3758 119.202 49.0025 119.332 48.6044C119.487 48.1814 119.565 47.7708 119.565 47.3727C119.565 46.8253 119.423 46.3649 119.137 45.9917C118.878 45.6185 118.514 45.3074 118.047 45.0586C117.58 44.7849 117.035 44.5609 116.412 44.3868C115.815 44.1877 115.193 43.9886 114.544 43.7896C113.921 43.6154 113.259 43.4039 112.559 43.1551C111.884 42.9062 111.261 42.5579 110.69 42.11C110.119 41.6621 109.639 41.1023 109.25 40.4304C108.887 39.7337 108.705 38.8504 108.705 37.7804C108.705 36.1879 109.12 34.8567 109.951 33.7867C110.807 32.6919 111.871 31.8085 113.143 31.1367C114.44 30.4649 115.854 29.9921 117.385 29.7184C118.916 29.4198 120.37 29.2705 121.745 29.2705C123.562 29.2705 125.119 29.482 126.416 29.905C127.74 30.3031 128.739 30.7759 129.413 31.3233L127.973 36.5114H121.512Z" fill="white"/><path d="M149.846 53.3446H141.438L143.774 42.7818H138.986L136.65 53.3446H128.242L133.497 29.6437H141.944L139.648 39.9452H144.396L146.693 29.6437H155.179L149.846 53.3446Z" fill="white"/><path d="M161.797 53.3446H153.389L158.644 29.6437H167.091L161.797 53.3446Z" fill="white"/><path d="M177.802 43.1178C178.581 43.1178 179.229 42.8067 179.748 42.1846C180.293 41.5626 180.734 40.8037 181.072 39.9079C181.435 39.0121 181.695 38.079 181.85 37.1086C182.006 36.1381 182.084 35.2921 182.084 34.5705C182.084 33.8987 181.967 33.3388 181.733 32.8909C181.5 32.4182 180.994 32.1818 180.215 32.1818H178.464L176.011 43.1178H177.802ZM175.466 45.5065L173.715 53.3446H165.307L170.562 29.6437H179.554C181.033 29.6437 182.382 29.7184 183.602 29.8677C184.822 30.017 185.873 30.3156 186.755 30.7635C187.637 31.2114 188.325 31.8583 188.818 32.7043C189.311 33.5255 189.558 34.6327 189.558 36.0262C189.558 37.3201 189.337 38.5518 188.896 39.7213C188.481 40.8659 187.793 41.8736 186.833 42.7445C185.899 43.5905 184.679 44.2624 183.174 44.76C181.669 45.2577 179.839 45.5065 177.685 45.5065H175.466Z" fill="white"/><path d="M200.364 43.1178C201.142 43.1178 201.791 42.8067 202.31 42.1846C202.855 41.5626 203.296 40.8037 203.633 39.9079C203.997 39.0121 204.256 38.079 204.412 37.1086C204.568 36.1381 204.646 35.2921 204.646 34.5705C204.646 33.8987 204.529 33.3388 204.295 32.8909C204.062 32.4182 203.556 32.1818 202.777 32.1818H201.025L198.573 43.1178H200.364ZM198.028 45.5065L196.276 53.3446H187.869L193.124 29.6437H202.115C203.595 29.6437 204.944 29.7184 206.164 29.8677C207.383 30.017 208.434 30.3156 209.317 30.7635C210.199 31.2114 210.887 31.8583 211.38 32.7043C211.873 33.5255 212.119 34.6327 212.119 36.0262C212.119 37.3201 211.899 38.5518 211.457 39.7213C211.042 40.8659 210.355 41.8736 209.394 42.7445C208.46 43.5905 207.241 44.2624 205.735 44.76C204.23 45.2577 202.401 45.5065 200.247 45.5065H198.028Z" fill="white"/><path d="M218.838 53.3446H210.43L215.685 29.6437H224.132L218.838 53.3446Z" fill="white"/><path d="M243.096 53.3446H233.987L229.666 36.2128L225.851 53.3446H222.348L227.603 29.6437H236.906L240.994 46.9995L244.847 29.6437H248.428L243.096 53.3446Z" fill="white"/><path d="M260.439 42.5206H270.521L268.263 53.3446H263.67L262.93 50.9558H262.775C262.1 51.7023 261.295 52.3368 260.361 52.8593C259.453 53.3819 258.259 53.6431 256.78 53.6431C255.638 53.6431 254.535 53.469 253.471 53.1206C252.433 52.7474 251.499 52.1751 250.669 51.4037C249.864 50.6075 249.215 49.5748 248.722 48.3058C248.229 47.0368 247.983 45.5065 247.983 43.7149C247.983 41.7741 248.294 39.9328 248.917 38.191C249.54 36.4492 250.474 34.9189 251.72 33.6001C252.965 32.2564 254.522 31.1989 256.391 30.4276C258.259 29.6562 260.439 29.2705 262.93 29.2705C264.851 29.2705 266.524 29.482 267.952 29.905C269.379 30.328 270.728 30.8008 272 31.3233L270.521 38.5642H263.942C263.968 38.2905 264.007 37.967 264.059 37.5938C264.111 37.2205 264.15 36.8349 264.176 36.4367C264.202 36.0137 264.228 35.6032 264.254 35.205C264.28 34.8069 264.293 34.4586 264.293 34.16C264.293 33.9609 264.28 33.737 264.254 33.4881C264.228 33.2144 264.163 32.9532 264.059 32.7043C263.955 32.4555 263.8 32.2564 263.592 32.1071C263.384 31.933 263.086 31.8459 262.697 31.8459C262.022 31.8459 261.399 32.1196 260.828 32.667C260.283 33.1895 259.79 33.8987 259.349 34.7945C258.908 35.6654 258.519 36.6607 258.181 37.7804C257.87 38.9001 257.597 40.0447 257.364 41.2142C257.156 42.3588 256.988 43.491 256.858 44.6107C256.754 45.7056 256.702 46.6635 256.702 47.4847C256.702 47.7335 256.715 48.0445 256.741 48.4178C256.767 48.791 256.845 49.1643 256.975 49.5375C257.13 49.8859 257.338 50.1969 257.597 50.4706C257.883 50.7194 258.285 50.8438 258.804 50.8438C259.661 50.8438 260.491 50.396 261.295 49.5002C262.1 48.6044 262.71 47.1114 263.125 45.0213H259.855L260.439 42.5206Z" fill="white"/><path d="M92.4577 41.0934C92.6852 57.913 78.8981 65.7585 72.2606 67.5788C81.648 65.0043 95.8712 56.3839 95.8712 41.0934C95.8712 34.8134 94.7334 25.9518 84.4926 18.1577C75.7931 11.5365 63.545 10.17 57.333 9.97091C57.2351 9.96777 57.1433 10.0012 57.0704 10.0638L46.8736 18.8211C46.7529 18.9247 46.863 19.1153 47.0192 19.0737C53.5972 17.3218 59.6752 17.0741 66.2868 17.3385C73.114 17.6116 92.1991 21.9803 92.4577 41.0934Z" fill="white"/><path d="M96.8747 41.8963C96.5847 64.5378 114.152 75.0989 122.609 77.5493C110.648 74.0838 92.5252 62.4795 92.5252 41.8963C92.5252 33.4424 93.975 21.5135 107.023 11.0215C118.117 2.1009 133.74 0.265857 141.649 0.000239514C141.761 -0.00350754 141.865 0.0368381 141.949 0.112321L154.878 11.8434C155.05 12 154.893 12.2886 154.67 12.2262C146.327 9.89364 138.611 9.56426 130.221 9.91878C121.522 10.2863 97.2042 16.1673 96.8747 41.8963Z" fill="#3579F4"/></svg>