<svg width="705" height="219" viewBox="0 0 705 219" fill="none" xmlns="http://www.w3.org/2000/svg"><path d="M197.681 3.6973L197.812 3.70888H197.944H567.548C583.984 3.89901 621.818 5.64421 642.813 10.9871C662.932 16.107 689.537 26.7551 702 32.1553V109.004V109.996V186.845C689.537 192.245 662.932 202.893 642.813 208.013C621.818 213.356 583.984 215.101 567.548 215.291H197.944H197.812L197.681 215.303C182.917 216.604 158.404 216.44 133.111 211.686C107.765 206.921 82.0406 197.621 64.4481 180.96C29.9091 148.248 9.97438 119.982 3.46721 109.007C9.96114 98.1388 29.884 70.7754 64.4481 38.0404C82.0406 21.379 107.765 12.079 133.111 7.31432C158.404 2.55977 182.917 2.39602 197.681 3.6973Z" fill="#EDEFF2" stroke="#BAD5E6" stroke-width="6"/></svg>